<svg xmlns="http://www.w3.org/2000/svg" viewBox="0 0 448 512" fill="#fff">
  <path d="M176 352h-48V48a16 16 0 0 0-16-16H80a16 16 0 0 0-16 16v304H16a16 16 0 0 0-11.3 27.3l80 96a16 16 0 0 0 22.6 0l80-96A16 16 0 0 0 176 352zm112-128h128a16 16 0 0 0 16-16v-32a16 16 0 0 0-16-16h-56l61.3-70.5A32 32 0 0 0 432 65.7V48a16 16 0 0 0-16-16H288a16 16 0 0 0-16 16v32a16 16 0 0 0 16 16h56l-61.3 70.5a32 32 0 0 0-10.7 23.9V208a16 16 0 0 0 16 16zm159 234.6-59.2-160a16 16 0 0 0-15-10.6h-41.5a16 16 0 0 0-15 10.6l-59.4 160A16 16 0 0 0 272 480h24.8a16 16 0 0 0 15.3-11l4.4-13h71l4.4 13a16 16 0 0 0 15.3 11H432a16 16 0 0 0 15-21.4zM335.7 400l16.4-48 16.4 48z"/>
</svg>
