<svg xmlns="http://www.w3.org/2000/svg" viewBox="0 0 448 512" fill="#fff">
  <path d="M16 160h48v304a16 16 0 0 0 16 16h32a16 16 0 0 0 16-16V160h48a16 16 0 0 0 11.3-27.3l-80-96a16 16 0 0 0-22.6 0l-80 96A16 16 0 0 0 16 160zm400 128H288a16 16 0 0 0-16 16v32a16 16 0 0 0 16 16h56l-61.3 70.5a32 32 0 0 0-10.7 23.9V464a16 16 0 0 0 16 16h128a16 16 0 0 0 16-16v-32a16 16 0 0 0-16-16h-56l61.3-70.5a32 32 0 0 0 10.7-23.9V304a16 16 0 0 0-16-16zm31-85.4-59.2-160a16 16 0 0 0-15-10.6h-41.5a16 16 0 0 0-15 10.6l-59.4 160A16 16 0 0 0 272 224h24.8a16 16 0 0 0 15.3-11l4.4-13h71l4.4 13a16 16 0 0 0 15.3 11H432a16 16 0 0 0 15-21.4zM335.7 144 352 96l16.4 48z"/>
</svg>
